<svg width="100%" height="100%" viewBox="0 0 4206 4206" version="1.1" xmlns="http://www.w3.org/2000/svg" xmlns:xlink="http://www.w3.org/1999/xlink" xml:space="preserve" fill-rule="evenodd" clip-rule="evenodd" stroke-linecap="round" stroke-linejoin="round" stroke-miterlimit="1.5">
    <g id="circle">
        
        <g id="circleMajor">
            <path id="C" className="active" d="M2638.16,90.513c-353.241,-94.651 -725.173,-94.651 -1078.41,-0l134.801,503.086c264.931,-70.988 543.88,-70.988 808.81,0l134.802,-503.086Zm-442.771,228.979c-1.845,25.5 -11.258,45.573 -28.239,60.222c-16.981,14.648 -39.361,21.973 -67.139,21.973c-30.382,-0 -54.28,-10.227 -71.696,-30.681c-17.415,-20.453 -26.123,-48.53 -26.123,-84.228l0,-14.486c0,-22.786 4.015,-42.86 12.045,-60.221c8.029,-17.361 19.504,-30.681 34.423,-39.958c14.92,-9.277 32.254,-13.916 52.002,-13.916c27.344,-0 49.371,7.324 66.081,21.973c16.71,14.648 26.367,35.21 28.971,61.686l-48.828,-0c-1.193,-15.3 -5.452,-26.395 -12.776,-33.285c-7.325,-6.89 -18.474,-10.335 -33.448,-10.335c-16.276,-0 -28.456,5.832 -36.539,17.497c-8.084,11.664 -12.235,29.758 -12.452,54.28l0,17.904c0,25.608 3.88,44.325 11.638,56.152c7.758,11.828 19.992,17.741 36.702,17.741c15.083,0 26.34,-3.445 33.773,-10.335c7.433,-6.89 11.692,-17.551 12.777,-31.983l48.828,0Z" fill="#7d7d7d" />
            <path id="G" className="" d="M3572.1,629.719c-258.589,-258.59 -580.692,-444.556 -933.932,-539.206l-134.802,503.086c264.93,70.988 506.507,210.463 700.45,404.405l368.284,-368.285Zm-475.082,-19.593c-8.789,10.525 -21.213,18.69 -37.272,24.495c-16.059,5.805 -33.854,8.708 -53.385,8.708c-20.508,0 -38.493,-4.476 -53.955,-13.428c-15.462,-8.952 -27.398,-21.945 -35.807,-38.981c-8.41,-17.035 -12.723,-37.055 -12.94,-60.058l0,-16.114c0,-23.654 3.988,-44.135 11.963,-61.442c7.975,-17.307 19.477,-30.544 34.505,-39.713c15.028,-9.169 32.634,-13.754 52.816,-13.754c28.103,0 50.076,6.701 65.918,20.101c15.842,13.401 25.228,32.905 28.157,58.513l-47.526,-0c-2.17,-13.564 -6.971,-23.492 -14.404,-29.785c-7.433,-6.294 -17.659,-9.441 -30.68,-9.441c-16.602,0 -29.243,6.24 -37.923,18.718c-8.681,12.478 -13.075,31.033 -13.184,55.664l0,15.137c0,24.848 4.72,43.619 14.16,56.315c9.44,12.695 23.275,19.043 41.504,19.043c18.338,-0 31.413,-3.906 39.225,-11.719l0,-40.853l-44.433,0l-0,-35.97l93.261,0l0,94.564Z" fill="#7d7d7d" />
            <path id="D" className="" d="M4111.3,1563.65c-94.651,-353.24 -280.617,-675.343 -539.207,-933.933l-368.284,368.285c193.942,193.942 333.417,435.519 404.404,700.45l503.087,-134.802Zm-497.739,-246.908l0,-236.979l72.917,-0c20.833,-0 39.47,4.693 55.908,14.079c16.439,9.386 29.27,22.732 38.493,40.039c9.223,17.307 13.835,36.973 13.835,59l-0,10.905c-0,22.027 -4.53,41.613 -13.591,58.757c-9.06,17.144 -21.837,30.436 -38.33,39.876c-16.493,9.44 -35.102,14.215 -55.827,14.323l-73.405,0Zm48.829,-197.428l-0,158.203l23.6,-0c19.097,-0 33.691,-6.239 43.782,-18.718c10.092,-12.478 15.246,-30.327 15.463,-53.548l-0,-12.532c-0,-24.089 -4.992,-42.345 -14.974,-54.769c-9.983,-12.424 -24.577,-18.636 -43.783,-18.636l-24.088,-0Z" fill="#7d7d7d" />
            <path id="A" className="" d="M4111.3,2642.07c94.65,-353.241 94.65,-725.173 -0,-1078.41l-503.087,134.802c70.988,264.93 70.988,543.879 0,808.809l503.087,134.802Zm-146.704,-469.545l-85.612,-0l-16.276,48.828l-51.921,-0l88.216,-236.979l45.248,-0l88.704,236.979l-51.921,-0l-16.438,-48.828Zm-72.429,-39.551l59.245,-0l-29.785,-88.704l-29.46,88.704Z" fill="#7d7d7d" />
            <path id="E" className="" d="M3572.1,3576c258.59,-258.59 444.556,-580.693 539.207,-933.933l-503.087,-134.802c-70.987,264.93 -210.462,506.507 -404.404,700.45l368.284,368.285Zm168.769,-545.95l-93.75,-0l-0,63.476l110.026,0l-0,39.225l-158.854,0l-0,-236.979l158.528,0l0,39.551l-109.7,0l-0,56.478l93.75,-0l-0,38.249Z" fill="#7d7d7d" />
            <path id="CbB" className="" d="M2638.16,4115.2c353.24,-94.651 675.343,-280.617 933.933,-539.207l-368.285,-368.284c-193.943,193.942 -435.52,333.417 -700.45,404.404l134.802,503.087Zm297.354,-448.781l9.44,0l-0,137.208c7.812,-8.03 14.784,-13.971 20.915,-17.823c6.13,-3.852 11.149,-5.778 15.055,-5.778c4.557,0 8.708,0.841 12.451,2.523c3.744,1.682 7.026,4.069 9.847,7.161c2.821,3.093 4.991,6.701 6.511,10.824c1.519,4.123 2.278,8.626 2.278,13.509c0,3.147 -0.922,6.538 -2.767,10.173c-1.844,3.635 -4.069,7.27 -6.673,10.905c-2.604,3.635 -5.371,7.053 -8.301,10.254c-2.929,3.201 -5.534,5.94 -7.812,8.219l-49.805,46.875l-1.139,-234.05Zm9.928,218.75c3.906,-5.099 8.084,-10.606 12.533,-16.52c4.449,-5.913 8.518,-12.071 12.207,-18.473c3.689,-6.402 6.754,-13.021 9.196,-19.857c2.441,-6.836 3.662,-13.672 3.662,-20.508c-0,-4.448 -1.194,-8.029 -3.581,-10.742c-2.387,-2.712 -5.588,-4.069 -9.603,-4.069c-3.363,0 -6.863,0.895 -10.498,2.686c-3.635,1.79 -6.592,3.933 -8.87,6.429l-5.534,6.998l0.488,74.056Zm-45.41,-84.798c-1.845,25.499 -11.258,45.573 -28.239,60.222c-16.981,14.648 -39.361,21.972 -67.139,21.972c-30.381,0 -54.28,-10.226 -71.696,-30.68c-17.415,-20.454 -26.123,-48.53 -26.123,-84.229l0,-14.485c0,-22.787 4.015,-42.86 12.045,-60.222c8.029,-17.361 19.504,-30.68 34.424,-39.957c14.919,-9.278 32.253,-13.916 52.001,-13.916c27.344,-0 49.371,7.324 66.081,21.972c16.71,14.649 26.367,35.211 28.972,61.687l-48.829,-0c-1.193,-15.3 -5.452,-26.395 -12.776,-33.285c-7.324,-6.89 -18.474,-10.335 -33.448,-10.335c-16.276,-0 -28.455,5.832 -36.539,17.497c-8.084,11.664 -12.234,29.758 -12.451,54.28l-0,17.904c-0,25.607 3.879,44.325 11.637,56.152c7.758,11.827 19.992,17.741 36.702,17.741c15.083,0 26.341,-3.445 33.773,-10.335c7.433,-6.89 11.692,-17.551 12.777,-31.983l48.828,0Zm211.943,-125.745l-0,-236.98l83.008,0c28.754,0 50.564,5.507 65.429,16.521c14.866,11.013 22.298,27.153 22.298,48.421c0,11.61 -2.983,21.837 -8.951,30.68c-5.968,8.843 -14.269,15.327 -24.903,19.45c12.153,3.038 21.729,9.169 28.728,18.392c6.998,9.223 10.498,20.508 10.498,33.854c-0,22.787 -7.27,40.039 -21.81,51.758c-14.54,11.719 -35.265,17.687 -62.175,17.904l-92.122,-0Zm48.828,-103.191l-0,63.965l41.829,0c11.502,0 20.481,-2.739 26.937,-8.219c6.456,-5.48 9.684,-13.048 9.684,-22.705c0,-21.702 -11.23,-32.715 -33.691,-33.041l-44.759,0Zm-0,-34.505l36.133,0c24.631,-0.434 36.946,-10.254 36.946,-29.459c0,-10.743 -3.119,-18.474 -9.358,-23.194c-6.24,-4.72 -16.087,-7.08 -29.541,-7.08l-34.18,0l-0,59.733Z" fill="#7d7d7d" />
            <path id="GbF#" className="" d="M1559.75,4115.2c353.24,94.65 725.172,94.65 1078.41,-0l-134.802,-503.087c-264.93,70.988 -543.879,70.988 -808.809,0l-134.802,503.087Zm894.302,-290.545l0,48.177l18.718,-9.603l-0.163,21.81l-18.555,9.603l0.326,66.244l18.392,-9.278l-0,22.298l-18.555,9.441l0.326,47.037l-9.278,0l-0.163,-42.317l-47.851,24.088l0.325,52.083l-8.789,0.163l-0.162,-47.851l-18.881,9.44l0,-22.136l19.043,-9.765l-0.325,-66.244l-18.88,9.603l-0,-21.973l18.88,-9.602l-0.163,-47.689l8.952,-0l0.163,42.969l47.688,-23.438l-0.162,-53.385l9.114,0.325Zm-499.315,-5.696l9.44,-0l-0,137.207c7.812,-8.03 14.784,-13.971 20.915,-17.823c6.13,-3.852 11.149,-5.778 15.055,-5.778c4.557,0 8.708,0.841 12.451,2.523c3.744,1.682 7.026,4.069 9.847,7.162c2.821,3.092 4.991,6.7 6.511,10.823c1.519,4.123 2.278,8.626 2.278,13.509c0,3.147 -0.922,6.538 -2.767,10.173c-1.844,3.635 -4.069,7.27 -6.673,10.905c-2.604,3.635 -5.371,7.053 -8.301,10.254c-2.929,3.201 -5.534,5.94 -7.812,8.219l-49.805,46.875l-1.139,-234.049Zm9.928,218.75c3.906,-5.1 8.084,-10.607 12.533,-16.521c4.449,-5.913 8.518,-12.071 12.207,-18.473c3.689,-6.402 6.754,-13.021 9.196,-19.857c2.441,-6.836 3.662,-13.672 3.662,-20.508c-0,-4.448 -1.194,-8.029 -3.581,-10.742c-2.387,-2.712 -5.588,-4.069 -9.603,-4.069c-3.363,0 -6.863,0.895 -10.498,2.686c-3.635,1.79 -6.592,3.933 -8.87,6.429l-5.534,6.999l0.488,74.056Zm-52.897,-35.808c-8.789,10.525 -21.213,18.691 -37.272,24.496c-16.059,5.805 -33.854,8.707 -53.386,8.707c-20.507,0 -38.492,-4.476 -53.955,-13.427c-15.462,-8.952 -27.398,-21.946 -35.807,-38.981c-8.409,-17.036 -12.722,-37.056 -12.939,-60.059l-0,-16.113c-0,-23.655 3.987,-44.136 11.963,-61.442c7.975,-17.307 19.477,-30.545 34.505,-39.714c15.028,-9.169 32.633,-13.753 52.816,-13.753c28.103,-0 50.075,6.7 65.917,20.101c15.843,13.4 25.228,32.904 28.158,58.512l-47.526,0c-2.17,-13.563 -6.972,-23.492 -14.404,-29.785c-7.433,-6.293 -17.66,-9.44 -30.681,-9.44c-16.601,-0 -29.242,6.239 -37.923,18.717c-8.68,12.479 -13.075,31.033 -13.183,55.664l-0,15.137c-0,24.848 4.72,43.62 14.16,56.315c9.44,12.695 23.274,19.043 41.504,19.043c18.337,0 31.412,-3.906 39.225,-11.719l-0,-40.853l-44.434,0l0,-35.97l93.262,0l0,94.564Zm413.866,-66.894l-93.75,-0l0,96.842l-48.828,0l0,-236.979l154.297,-0l0,39.551l-105.469,-0l0,61.198l93.75,-0l0,39.388Zm119.466,-35.482l-47.851,24.088l0.325,66.081l47.526,-23.926l0,-66.243Z" fill="#7d7d7d" />
            <path id="DbC#" className="" d="M625.819,3576c258.59,258.589 580.693,444.555 933.933,539.206l134.802,-503.086c-264.931,-70.988 -506.508,-210.463 -700.45,-404.405l-368.285,368.285Zm911.884,101.218l0,48.177l18.718,-9.603l-0.163,21.81l-18.555,9.603l0.326,66.243l18.392,-9.277l-0,22.298l-18.555,9.44l0.325,47.038l-9.277,-0l-0.163,-42.318l-47.851,24.089l0.325,52.083l-8.789,0.163l-0.163,-47.852l-18.88,9.44l0,-22.135l19.043,-9.766l-0.325,-66.243l-18.881,9.603l0,-21.973l18.881,-9.603l-0.163,-47.689l8.952,0l0.162,42.969l47.689,-23.437l-0.162,-53.386l9.114,0.326Zm-120.443,128.255c-1.844,25.499 -11.257,45.573 -28.239,60.221c-16.981,14.649 -39.36,21.973 -67.138,21.973c-30.382,-0 -54.281,-10.227 -71.696,-30.68c-17.416,-20.454 -26.123,-48.53 -26.123,-84.229l-0,-14.486c-0,-22.786 4.015,-42.86 12.044,-60.221c8.03,-17.361 19.504,-30.68 34.424,-39.958c14.92,-9.277 32.254,-13.916 52.002,-13.916c27.344,0 49.37,7.325 66.081,21.973c16.71,14.648 26.367,35.211 28.971,61.686l-48.828,0c-1.194,-15.299 -5.453,-26.394 -12.777,-33.284c-7.324,-6.89 -18.473,-10.336 -33.447,-10.336c-16.276,0 -28.456,5.833 -36.54,17.497c-8.084,11.665 -12.234,29.758 -12.451,54.281l-0,17.903c-0,25.608 3.879,44.326 11.637,56.153c7.759,11.827 19.993,17.741 36.703,17.741c15.082,-0 26.34,-3.445 33.773,-10.336c7.432,-6.89 11.691,-17.551 12.776,-31.982l48.828,-0Zm111.491,-53.385l-47.851,24.088l0.325,66.081l47.526,-23.926l0,-66.243Zm-438.991,-304.823l9.44,-0l-0,137.207c7.812,-8.03 14.784,-13.971 20.914,-17.823c6.131,-3.852 11.149,-5.778 15.056,-5.778c4.557,0 8.707,0.841 12.451,2.523c3.743,1.682 7.026,4.069 9.847,7.162c2.821,3.092 4.991,6.7 6.51,10.823c1.519,4.123 2.279,8.626 2.279,13.509c-0,3.147 -0.922,6.538 -2.767,10.173c-1.845,3.635 -4.069,7.27 -6.673,10.905c-2.604,3.635 -5.371,7.053 -8.301,10.254c-2.93,3.201 -5.534,5.94 -7.812,8.219l-49.805,46.875l-1.139,-234.049Zm9.928,218.75c3.906,-5.1 8.084,-10.607 12.532,-16.521c4.449,-5.913 8.518,-12.071 12.207,-18.473c3.69,-6.402 6.755,-13.021 9.196,-19.857c2.442,-6.836 3.663,-13.672 3.663,-20.508c-0,-4.448 -1.194,-8.029 -3.581,-10.742c-2.387,-2.712 -5.588,-4.069 -9.603,-4.069c-3.364,0 -6.863,0.895 -10.498,2.686c-3.635,1.79 -6.592,3.933 -8.871,6.429l-5.533,6.999l0.488,74.056Zm-229.981,-5.86l0,-236.979l72.917,0c20.833,0 39.47,4.693 55.908,14.079c16.439,9.386 29.27,22.732 38.493,40.039c9.223,17.307 13.835,36.974 13.835,59.001l-0,10.904c-0,22.027 -4.53,41.613 -13.591,58.757c-9.06,17.144 -21.837,30.436 -38.33,39.876c-16.493,9.44 -35.102,14.215 -55.827,14.323l-73.405,0Zm48.829,-197.428l-0,158.203l23.6,-0c19.097,-0 33.691,-6.239 43.782,-18.718c10.092,-12.478 15.246,-30.327 15.463,-53.548l-0,-12.532c-0,-24.089 -4.992,-42.345 -14.974,-54.769c-9.983,-12.424 -24.577,-18.636 -43.783,-18.636l-24.088,-0Z" fill="#7d7d7d" />
            <path id="Ab" className="" d="M86.613,2642.07c94.65,353.24 280.616,675.343 539.206,933.933l368.285,-368.285c-193.942,-193.943 -333.417,-435.52 -404.405,-700.45l-503.086,134.802Zm525.543,259.935l9.44,0l-0,137.207c7.812,-8.029 14.784,-13.97 20.914,-17.822c6.131,-3.852 11.149,-5.778 15.056,-5.778c4.557,-0 8.707,0.841 12.451,2.523c3.743,1.681 7.026,4.069 9.847,7.161c2.821,3.093 4.991,6.7 6.51,10.824c1.519,4.123 2.279,8.626 2.279,13.509c-0,3.146 -0.922,6.537 -2.767,10.172c-1.845,3.635 -4.069,7.27 -6.673,10.905c-2.604,3.635 -5.371,7.053 -8.301,10.254c-2.93,3.201 -5.534,5.941 -7.812,8.22l-49.805,46.875l-1.139,-234.05Zm9.928,218.75c3.906,-5.1 8.084,-10.606 12.532,-16.52c4.449,-5.914 8.518,-12.071 12.208,-18.473c3.689,-6.402 6.754,-13.021 9.195,-19.857c2.442,-6.836 3.663,-13.672 3.663,-20.508c-0,-4.449 -1.194,-8.03 -3.581,-10.742c-2.387,-2.713 -5.588,-4.069 -9.603,-4.069c-3.364,-0 -6.863,0.895 -10.498,2.685c-3.635,1.791 -6.592,3.934 -8.87,6.429l-5.534,6.999l0.488,74.056Zm-103.841,-54.687l-85.612,-0l-16.276,48.828l-51.921,-0l88.216,-236.979l45.248,-0l88.704,236.979l-51.92,-0l-16.439,-48.828Zm-72.429,-39.551l59.245,-0l-29.785,-88.705l-29.46,88.705Z" fill="#7d7d7d" />
            <path id="Eb" className="" d="M86.613,1563.65c-94.651,353.24 -94.651,725.172 -0,1078.41l503.086,-134.802c-70.988,-264.93 -70.988,-543.879 0,-808.809l-503.086,-134.802Zm273.259,434.226l9.441,0l-0,137.207c7.812,-8.029 14.784,-13.97 20.914,-17.822c6.131,-3.852 11.149,-5.778 15.056,-5.778c4.557,-0 8.707,0.841 12.451,2.523c3.743,1.681 7.026,4.069 9.847,7.161c2.821,3.092 4.991,6.7 6.51,10.824c1.519,4.123 2.279,8.626 2.279,13.509c-0,3.146 -0.923,6.537 -2.767,10.172c-1.845,3.635 -4.069,7.27 -6.673,10.905c-2.604,3.635 -5.371,7.053 -8.301,10.254c-2.93,3.201 -5.534,5.941 -7.813,8.219l-49.804,46.875l-1.14,-234.049Zm9.929,218.75c3.906,-5.1 8.084,-10.607 12.532,-16.52c4.449,-5.914 8.518,-12.072 12.207,-18.473c3.69,-6.402 6.755,-13.021 9.196,-19.857c2.442,-6.836 3.662,-13.672 3.662,-20.508c0,-4.449 -1.193,-8.03 -3.58,-10.742c-2.387,-2.713 -5.588,-4.069 -9.603,-4.069c-3.364,-0 -6.863,0.895 -10.498,2.685c-3.635,1.791 -6.592,3.934 -8.871,6.429l-5.533,6.999l0.488,74.056Zm-58.268,-108.561l-93.75,-0l-0,63.476l110.026,0l-0,39.226l-158.855,-0l0,-236.98l158.529,0l0,39.551l-109.7,0l-0,56.478l93.75,0l-0,38.249Z" fill="#7d7d7d" />
            <path id="Bb" className="" d="M625.819,629.719c-258.59,258.59 -444.556,580.693 -539.206,933.933l503.086,134.802c70.988,-264.931 210.463,-506.507 404.405,-700.45l-368.285,-368.285Zm-33.228,480.275l9.441,0l-0,137.207c7.812,-8.029 14.784,-13.97 20.914,-17.822c6.131,-3.852 11.149,-5.778 15.056,-5.778c4.557,-0 8.707,0.841 12.451,2.523c3.743,1.682 7.026,4.069 9.847,7.161c2.821,3.093 4.991,6.7 6.51,10.824c1.519,4.123 2.279,8.626 2.279,13.509c-0,3.147 -0.922,6.537 -2.767,10.172c-1.845,3.635 -4.069,7.27 -6.673,10.905c-2.604,3.635 -5.371,7.053 -8.301,10.254c-2.93,3.201 -5.534,5.941 -7.813,8.22l-49.804,46.875l-1.14,-234.05Zm9.929,218.75c3.906,-5.1 8.084,-10.606 12.532,-16.52c4.449,-5.914 8.518,-12.071 12.207,-18.473c3.69,-6.402 6.755,-13.021 9.196,-19.857c2.442,-6.836 3.662,-13.672 3.662,-20.508c0,-4.449 -1.193,-8.029 -3.58,-10.742c-2.387,-2.713 -5.588,-4.069 -9.603,-4.069c-3.364,-0 -6.863,0.895 -10.498,2.685c-3.635,1.791 -6.592,3.934 -8.871,6.429l-5.533,6.999l0.488,74.056Zm-226.074,-5.859l-0,-236.979l83.007,-0c28.755,-0 50.565,5.506 65.43,16.52c14.866,11.013 22.298,27.154 22.298,48.421c0,11.61 -2.984,21.837 -8.952,30.68c-5.967,8.844 -14.268,15.327 -24.902,19.45c12.153,3.038 21.729,9.169 28.727,18.392c6.999,9.223 10.498,20.508 10.498,33.854c0,22.787 -7.27,40.039 -21.81,51.758c-14.539,11.719 -35.264,17.687 -62.174,17.904l-92.122,-0Zm48.828,-103.19l-0,63.965l41.829,-0c11.502,-0 20.481,-2.74 26.937,-8.22c6.456,-5.479 9.684,-13.048 9.684,-22.705c0,-21.701 -11.23,-32.715 -33.691,-33.04l-44.759,-0Zm-0,-34.506l36.133,0c24.631,-0.434 36.946,-10.253 36.946,-29.459c0,-10.742 -3.119,-18.473 -9.359,-23.194c-6.239,-4.72 -16.086,-7.08 -29.541,-7.08l-34.179,0l-0,59.733Z" fill="#7d7d7d" />
            <path id="F" className="" d="M1559.75,90.513c-353.24,94.65 -675.343,280.616 -933.933,539.206l368.285,368.285c193.942,-193.942 435.519,-333.417 700.45,-404.405l-134.802,-503.086Zm-292.56,480.002l-93.75,0l-0,96.843l-48.829,-0l0,-236.979l154.297,-0l0,39.55l-105.468,0l-0,61.198l93.75,0l-0,39.388Z" fill="#7d7d7d" />
        </g>
        <g id="circleMinor">
            <path id="A" className="" d="M2503.36,593.599c-264.93,-70.988 -543.879,-70.988 -808.81,0l134.672,502.601c176.705,-47.348 362.761,-47.348 539.467,0l134.671,-502.601Zm-367.458,273.134l-74.911,0l-14.241,42.725l-45.431,-0l77.19,-207.357l39.591,-0l77.616,207.357l-45.43,-0l-14.384,-42.725Zm-63.375,-34.607l51.839,0l-26.062,-77.616l-25.777,77.616Z" fill="#7d7d7d" />
            <path id="E" className="" d="M3203.81,998.004c-193.943,-193.942 -435.52,-333.417 -700.45,-404.405l-134.672,502.601c176.706,47.348 337.835,140.376 467.192,269.734l367.93,-367.93Zm-397.978,-9.97l-82.031,-0l0,55.542l96.273,-0l0,34.322l-138.997,-0l-0,-207.357l138.712,0l0,34.607l-95.988,0l0,49.418l82.031,0l0,33.468Z" fill="#7d7d7d" />
            <path id="B" className="" d="M3608.22,1698.45c-70.987,-264.931 -210.462,-506.508 -404.404,-700.45l-367.93,367.929c129.358,129.358 222.385,290.487 269.733,467.192l502.601,-134.671Zm-457.724,-130.551l0,-207.357l72.632,-0c25.16,-0 44.244,4.818 57.251,14.455c13.008,9.637 19.511,23.76 19.511,42.368c0,10.159 -2.611,19.108 -7.833,26.846c-5.222,7.738 -12.485,13.411 -21.789,17.018c10.633,2.659 19.012,8.023 25.136,16.093c6.124,8.071 9.186,17.945 9.186,29.623c-0,19.938 -6.361,35.034 -19.084,45.288c-12.722,10.254 -30.856,15.476 -54.402,15.666l-80.608,-0Zm42.725,-90.292l0,55.969l36.601,0c10.064,0 17.92,-2.397 23.57,-7.192c5.649,-4.794 8.473,-11.417 8.473,-19.867c0,-18.988 -9.826,-28.625 -29.48,-28.91l-39.164,0Zm0,-30.192l31.616,0c21.552,-0.38 32.329,-8.972 32.329,-25.777c-0,-9.399 -2.73,-16.164 -8.189,-20.294c-5.46,-4.13 -14.076,-6.195 -25.849,-6.195l-29.907,-0l0,52.266Z" fill="#7d7d7d" />
            <path id="F#" className="" d="M3608.22,2507.26c70.988,-264.93 70.988,-543.879 0,-808.809l-502.601,134.671c47.348,176.706 47.349,362.761 0,539.467l502.601,134.671Zm-114.308,-459.064l0,42.155l16.378,-8.403l-0.142,19.084l-16.236,8.403l0.285,57.963l16.093,-8.118l0,19.511l-16.235,8.26l0.285,41.158l-8.118,0l-0.143,-37.028l-41.87,21.078l0.285,45.572l-7.69,0.143l-0.143,-41.87l-16.52,8.26l0,-19.369l16.663,-8.545l-0.285,-57.963l-16.52,8.403l-0,-19.226l16.52,-8.403l-0.143,-41.727l7.833,-0l0.143,37.597l41.727,-20.508l-0.142,-46.712l7.975,0.285Zm-112.365,96.558l-82.032,-0l0,84.737l-42.724,-0l-0,-207.357l135.009,0l0,34.607l-92.285,-0l0,53.548l82.032,0l-0,34.465Zm104.532,-31.047l-41.87,21.078l0.285,57.82l41.585,-20.935l0,-57.963Z" fill="#7d7d7d" />
            <path id="C#" className="" d="M3203.81,3207.71c193.942,-193.943 333.417,-435.52 404.404,-700.45l-502.601,-134.671c-47.348,176.705 -140.375,337.834 -269.733,467.191l367.93,367.93Zm130.276,-545.565l-0,42.155l16.377,-8.402l-0.142,19.084l-16.235,8.402l0.284,57.963l16.093,-8.118l0,19.511l-16.235,8.26l0.285,41.158l-8.118,0l-0.142,-37.028l-41.87,21.078l0.284,45.573l-7.69,0.142l-0.142,-41.87l-16.521,8.26l0,-19.368l16.663,-8.545l-0.285,-57.963l-16.52,8.402l-0,-19.226l16.52,-8.402l-0.142,-41.728l7.833,0l0.142,37.598l41.728,-20.508l-0.143,-46.712l7.976,0.284Zm-105.388,112.224c-1.614,22.311 -9.85,39.876 -24.709,52.693c-14.859,12.818 -34.441,19.227 -58.746,19.227c-26.584,-0 -47.496,-8.949 -62.734,-26.846c-15.239,-17.897 -22.858,-42.463 -22.858,-73.7l0,-12.675c0,-19.938 3.513,-37.502 10.539,-52.693c7.026,-15.191 17.066,-26.846 30.121,-34.963c13.054,-8.118 28.222,-12.177 45.501,-12.177c23.926,0 43.2,6.409 57.821,19.226c14.621,12.818 23.071,30.809 25.35,53.976l-42.725,-0c-1.044,-13.387 -4.771,-23.095 -11.179,-29.124c-6.409,-6.029 -16.164,-9.044 -29.267,-9.044c-14.241,0 -24.899,5.104 -31.972,15.31c-7.073,10.206 -10.705,26.038 -10.895,47.495l0,15.666c0,22.407 3.395,38.785 10.183,49.133c6.789,10.349 17.493,15.524 32.115,15.524c13.197,-0 23.047,-3.015 29.551,-9.044c6.504,-6.029 10.23,-15.357 11.18,-27.984l42.724,-0Zm97.555,-46.712l-41.87,21.077l0.284,57.821l41.586,-20.935l-0,-57.963Z" fill="#7d7d7d" />
            <path id="AbG#" className="" d="M2503.36,3612.12c264.93,-70.987 506.507,-210.462 700.45,-404.404l-367.93,-367.93c-129.357,129.358 -290.486,222.385 -467.191,269.733l134.671,502.601Zm195.146,-384.146l7.08,0l0,102.906c5.86,-6.022 11.089,-10.478 15.686,-13.367c4.598,-2.889 8.362,-4.333 11.292,-4.333c3.418,-0 6.531,0.63 9.338,1.892c2.808,1.261 5.27,3.051 7.386,5.371c2.116,2.319 3.743,5.025 4.882,8.117c1.14,3.093 1.709,6.47 1.709,10.132c0,2.36 -0.691,4.903 -2.075,7.63c-1.383,2.726 -3.052,5.452 -5.005,8.178c-1.953,2.727 -4.028,5.29 -6.225,7.691c-2.197,2.4 -4.151,4.455 -5.86,6.164l-37.353,35.157l-0.855,-175.538Zm7.447,164.063c2.929,-3.825 6.063,-7.955 9.399,-12.39c3.337,-4.435 6.388,-9.054 9.155,-13.855c2.767,-4.802 5.066,-9.766 6.897,-14.893c1.831,-5.127 2.747,-10.254 2.747,-15.381c-0,-3.336 -0.895,-6.022 -2.686,-8.056c-1.79,-2.035 -4.191,-3.052 -7.202,-3.052c-2.523,0 -5.147,0.671 -7.873,2.014c-2.727,1.343 -4.944,2.95 -6.653,4.822l-4.151,5.249l0.367,55.542Zm-77.881,-41.016l-64.209,0l-12.207,36.621l-38.941,0l66.162,-177.734l33.936,0l66.528,177.734l-38.94,0l-12.329,-36.621Zm-54.321,-29.663l44.433,0l-22.339,-66.528l-22.094,66.528Zm436.838,-227.21l0,36.133l14.038,-7.202l-0.122,16.357l-13.916,7.202l0.244,49.683l13.794,-6.958l0,16.723l-13.916,7.08l0.245,35.279l-6.959,-0l-0.122,-31.739l-35.888,18.067l0.244,39.062l-6.592,0.122l-0.122,-35.888l-14.16,7.08l-0,-16.602l14.282,-7.324l-0.244,-49.683l-14.16,7.203l-0,-16.48l14.16,-7.202l-0.122,-35.767l6.714,0l0.122,32.227l35.766,-17.578l-0.122,-40.039l6.836,0.244Zm-95.947,132.934c-6.592,7.894 -15.91,14.018 -27.954,18.372c-12.044,4.354 -25.391,6.531 -40.039,6.531c-15.381,-0 -28.87,-3.357 -40.466,-10.071c-11.597,-6.714 -20.549,-16.459 -26.856,-29.236c-6.307,-12.777 -9.542,-27.791 -9.705,-45.044l0,-12.085c0,-17.741 2.991,-33.101 8.973,-46.081c5.981,-12.98 14.607,-22.909 25.879,-29.785c11.271,-6.877 24.475,-10.315 39.611,-10.315c21.078,-0 37.557,5.025 49.439,15.075c11.881,10.051 18.921,24.679 21.118,43.885l-35.645,-0c-1.627,-10.173 -5.228,-17.619 -10.803,-22.339c-5.574,-4.72 -13.244,-7.08 -23.01,-7.08c-12.451,-0 -21.932,4.679 -28.442,14.038c-6.511,9.358 -9.807,23.274 -9.888,41.748l-0,11.352c-0,18.636 3.54,32.715 10.62,42.237c7.08,9.521 17.456,14.282 31.128,14.282c13.753,-0 23.56,-2.93 29.419,-8.789l-0,-30.64l-33.325,0l-0,-26.977l69.946,-0l0,70.922Zm89.233,-76.782l-35.888,18.067l0.244,49.56l35.644,-17.944l0,-49.683Z" fill="#7d7d7d" />
            <path id="EbD#" className="" d="M1694.55,3612.12c264.93,70.988 543.879,70.988 808.809,0l-134.671,-502.601c-176.706,47.349 -362.761,47.349 -539.467,0l-134.671,502.601Zm670.363,-283.812l-0,36.133l14.038,-7.202l-0.122,16.358l-13.916,7.202l0.244,49.682l13.794,-6.958l-0,16.724l-13.916,7.08l0.244,35.278l-6.958,0l-0.122,-31.738l-35.889,18.066l0.244,39.063l-6.592,0.122l-0.122,-35.889l-14.16,7.08l0,-16.601l14.282,-7.324l-0.244,-49.683l-14.16,7.202l0,-16.479l14.16,-7.202l-0.122,-35.767l6.714,-0l0.122,32.226l35.767,-17.578l-0.122,-40.039l6.836,0.244Zm-376.642,0l7.08,0l0,102.906c5.86,-6.022 11.088,-10.478 15.686,-13.367c4.598,-2.889 8.362,-4.334 11.292,-4.334c3.418,0 6.531,0.631 9.338,1.893c2.808,1.261 5.27,3.051 7.385,5.371c2.116,2.319 3.744,5.025 4.883,8.117c1.14,3.093 1.709,6.47 1.709,10.132c0,2.36 -0.691,4.903 -2.075,7.63c-1.383,2.726 -3.052,5.452 -5.005,8.178c-1.953,2.727 -4.028,5.29 -6.225,7.691c-2.198,2.4 -4.151,4.455 -5.86,6.164l-37.353,35.157l-0.855,-175.538Zm7.446,164.063c2.93,-3.825 6.063,-7.955 9.4,-12.39c3.336,-4.435 6.388,-9.054 9.155,-13.855c2.767,-4.802 5.066,-9.766 6.897,-14.893c1.831,-5.127 2.747,-10.254 2.747,-15.381c-0,-3.336 -0.895,-6.022 -2.686,-8.056c-1.79,-2.035 -4.191,-3.052 -7.202,-3.052c-2.523,-0 -5.147,0.671 -7.874,2.014c-2.726,1.343 -4.943,2.95 -6.652,4.822l-4.151,5.249l0.366,55.542Zm-43.701,-81.421l-70.312,0l-0,47.607l82.519,0l0,29.419l-119.14,0l-0,-177.734l118.896,0l0,29.663l-82.275,0l-0,42.358l70.312,0l0,28.687Zm184.137,72.754l-0,-177.734l54.687,-0c15.625,-0 29.602,3.519 41.932,10.559c12.329,7.039 21.952,17.049 28.869,30.029c6.918,12.98 10.376,27.73 10.376,44.25l0,8.179c0,16.52 -3.397,31.209 -10.193,44.068c-6.795,12.858 -16.377,22.827 -28.747,29.907c-12.37,7.08 -26.327,10.661 -41.87,10.742l-55.054,-0Zm36.621,-148.071l0,118.652l17.7,-0c14.323,-0 25.269,-4.679 32.837,-14.038c7.568,-9.359 11.434,-22.746 11.597,-40.161l-0,-9.4c-0,-18.066 -3.744,-31.758 -11.231,-41.076c-7.487,-9.318 -18.432,-13.977 -32.837,-13.977l-18.066,-0Zm185.425,48.828l-35.889,18.066l0.244,49.561l35.645,-17.945l-0,-49.682Z" fill="#7d7d7d" />
            <path id="BbA#" className="" d="M994.104,3207.71c193.942,193.942 435.519,333.417 700.45,404.405l134.671,-502.602c-176.705,-47.348 -337.834,-140.375 -467.192,-269.733l-367.929,367.93Zm710.889,1.268l0,36.133l14.038,-7.202l-0.122,16.357l-13.916,7.202l0.244,49.683l13.794,-6.958l0,16.724l-13.916,7.08l0.244,35.278l-6.958,-0l-0.122,-31.738l-35.888,18.066l0.244,39.063l-6.592,0.122l-0.122,-35.889l-14.16,7.08l-0,-16.602l14.282,-7.324l-0.244,-49.682l-14.16,7.202l-0,-16.48l14.16,-7.202l-0.122,-35.766l6.714,-0l0.122,32.226l35.766,-17.578l-0.122,-40.039l6.836,0.244Zm-134.155,118.774l-64.209,0l-12.207,36.622l-38.94,-0l66.162,-177.735l33.935,0l66.529,177.735l-38.941,-0l-12.329,-36.622Zm127.441,-62.622l-35.888,18.067l0.244,49.56l35.644,-17.944l0,-49.683Zm-181.762,32.959l44.433,0l-22.339,-66.528l-22.094,66.528Zm-132.482,-249.278l7.08,0l-0,102.905c5.859,-6.022 11.088,-10.477 15.686,-13.366c4.598,-2.889 8.362,-4.334 11.291,-4.334c3.418,0 6.531,0.631 9.339,1.892c2.807,1.262 5.269,3.052 7.385,5.371c2.116,2.32 3.744,5.026 4.883,8.118c1.139,3.092 1.709,6.47 1.709,10.132c-0,2.36 -0.692,4.903 -2.075,7.629c-1.384,2.727 -3.052,5.453 -5.005,8.179c-1.953,2.726 -4.029,5.29 -6.226,7.69c-2.197,2.401 -4.15,4.456 -5.859,6.165l-37.354,35.156l-0.854,-175.537Zm7.446,164.063c2.93,-3.825 6.063,-7.955 9.399,-12.391c3.337,-4.435 6.389,-9.053 9.156,-13.855c2.767,-4.801 5.066,-9.765 6.897,-14.892c1.831,-5.127 2.746,-10.254 2.746,-15.381c0,-3.337 -0.895,-6.022 -2.685,-8.057c-1.791,-2.034 -4.191,-3.051 -7.202,-3.051c-2.523,-0 -5.148,0.671 -7.874,2.014c-2.726,1.343 -4.944,2.95 -6.653,4.822l-4.15,5.249l0.366,55.542Zm-169.556,-4.395l0,-177.734l62.256,-0c21.566,-0 37.923,4.13 49.073,12.39c11.149,8.26 16.723,20.365 16.723,36.316c0,8.707 -2.238,16.378 -6.714,23.01c-4.476,6.632 -10.701,11.495 -18.676,14.587c9.114,2.279 16.296,6.877 21.545,13.794c5.249,6.918 7.873,15.381 7.873,25.391c0,17.09 -5.452,30.029 -16.357,38.818c-10.905,8.789 -26.449,13.265 -46.631,13.428l-69.092,0Zm36.622,-77.393l-0,47.974l31.372,0c8.626,0 15.36,-2.055 20.202,-6.164c4.842,-4.11 7.263,-9.786 7.263,-17.029c0,-16.276 -8.422,-24.536 -25.268,-24.781l-33.569,0Zm-0,-25.878l27.099,-0c18.473,-0.326 27.71,-7.691 27.71,-22.095c0,-8.057 -2.34,-13.855 -7.019,-17.395c-4.679,-3.54 -12.065,-5.31 -22.156,-5.31l-25.634,-0l-0,44.8Z" fill="#7d7d7d" />
            <path id="F" className="" d="M589.699,2507.26c70.988,264.93 210.463,506.507 404.405,700.45l367.93,-367.93c-129.358,-129.357 -222.386,-290.486 -269.734,-467.191l-502.601,134.671Zm465.568,276.806l-82.031,0l-0,84.738l-42.725,-0l-0,-207.357l135.01,-0l-0,34.607l-92.285,-0l-0,53.548l82.031,-0l-0,34.464Z" fill="#7d7d7d" />
            <path id="C" className="" d="M589.699,1698.45c-70.988,264.93 -70.988,543.879 0,808.809l502.601,-134.671c-47.348,-176.706 -47.348,-362.761 0,-539.467l-502.601,-134.671Zm309.061,439.011c-1.614,22.312 -9.85,39.877 -24.709,52.694c-14.858,12.817 -34.44,19.226 -58.746,19.226c-26.584,-0 -47.496,-8.948 -62.734,-26.845c-15.238,-17.897 -22.858,-42.464 -22.858,-73.7l0,-12.675c0,-19.938 3.513,-37.503 10.539,-52.694c7.026,-15.191 17.066,-26.845 30.121,-34.963c13.055,-8.118 28.222,-12.176 45.502,-12.176c23.925,-0 43.199,6.408 57.82,19.226c14.622,12.817 23.072,30.809 25.35,53.975l-42.724,0c-1.045,-13.387 -4.771,-23.095 -11.18,-29.124c-6.409,-6.029 -16.164,-9.043 -29.266,-9.043c-14.242,-0 -24.899,5.103 -31.973,15.309c-7.073,10.207 -10.704,26.039 -10.894,47.496l-0,15.666c-0,22.406 3.394,38.784 10.182,49.133c6.789,10.349 17.494,15.523 32.115,15.523c13.197,0 23.048,-3.014 29.551,-9.043c6.504,-6.029 10.23,-15.357 11.18,-27.985l42.724,0Z" fill="#7d7d7d" />
            <path id="G" className="" d="M994.104,998.004c-193.942,193.943 -333.417,435.519 -404.405,700.45l502.601,134.671c47.348,-176.705 140.376,-337.834 269.733,-467.191l-367.929,-367.93Zm63.775,545.359c-7.691,9.209 -18.562,16.354 -32.614,21.433c-14.051,5.08 -29.622,7.619 -46.712,7.619c-17.944,0 -33.681,-3.916 -47.21,-11.749c-13.53,-7.833 -23.974,-19.202 -31.332,-34.108c-7.358,-14.907 -11.132,-32.424 -11.322,-52.552l0,-14.099c0,-20.697 3.489,-38.618 10.468,-53.762c6.978,-15.143 17.042,-26.726 30.192,-34.749c13.149,-8.023 28.554,-12.034 46.213,-12.034c24.591,-0 43.817,5.863 57.679,17.588c13.861,11.726 22.074,28.792 24.638,51.199l-41.586,-0c-1.899,-11.868 -6.1,-20.556 -12.603,-26.062c-6.504,-5.507 -15.453,-8.261 -26.846,-8.261c-14.526,0 -25.587,5.46 -33.183,16.378c-7.595,10.919 -11.44,27.154 -11.535,48.706l-0,13.245c-0,21.742 4.13,38.167 12.39,49.276c8.26,11.108 20.365,16.662 36.316,16.662c16.045,0 27.486,-3.418 34.322,-10.254l-0,-35.746l-38.879,0l-0,-31.474l81.604,0l-0,82.744Z" fill="#7d7d7d" />
            <path id="D" className="" d="M1694.55,593.599c-264.931,70.988 -506.508,210.463 -700.45,404.405l367.929,367.93c129.358,-129.358 290.487,-222.386 467.192,-269.734l-134.671,-502.601Zm-308.692,480.987l-0,-207.357l63.802,0c18.229,0 34.535,4.107 48.919,12.319c14.384,8.213 25.611,19.891 33.682,35.035c8.07,15.143 12.105,32.352 12.105,51.625l-0,9.542c-0,19.274 -3.964,36.411 -11.892,51.412c-7.928,15.001 -19.107,26.632 -33.539,34.892c-14.431,8.26 -30.714,12.437 -48.848,12.532l-64.229,0Zm42.724,-172.75l0,138.428l20.65,0c16.71,0 29.48,-5.459 38.31,-16.378c8.83,-10.918 13.34,-26.536 13.53,-46.854l-0,-10.966c-0,-21.078 -4.368,-37.052 -13.103,-47.923c-8.734,-10.871 -21.504,-16.307 -38.309,-16.307l-21.078,0Z" fill="#7d7d7d" />
        </g>
        <g id="circleDim">
            <path id="B" className="" d="M2368.56,1096.69c-176.621,-47.326 -362.587,-47.326 -539.207,-0l134.802,503.086c88.31,-23.663 181.293,-23.663 269.603,0l134.802,-503.086Zm-335.644,322.663l0,-177.734l62.256,-0c21.566,-0 37.923,4.13 49.072,12.39c11.15,8.26 16.724,20.365 16.724,36.316c0,8.707 -2.238,16.378 -6.714,23.01c-4.476,6.632 -10.701,11.495 -18.677,14.587c9.115,2.279 16.297,6.877 21.546,13.794c5.249,6.918 7.873,15.381 7.873,25.391c0,17.09 -5.452,30.029 -16.357,38.818c-10.905,8.789 -26.449,13.265 -46.631,13.428l-69.092,0Zm36.621,-77.393l0,47.974l31.372,0c8.627,0 15.361,-2.055 20.203,-6.164c4.842,-4.11 7.263,-9.786 7.263,-17.029c0,-16.276 -8.423,-24.536 -25.268,-24.781l-33.57,0Zm0,-25.878l27.1,-0c18.473,-0.326 27.71,-7.691 27.71,-22.095c-0,-8.057 -2.34,-13.855 -7.019,-17.395c-4.679,-3.54 -12.065,-5.31 -22.156,-5.31l-25.635,-0l0,44.8Z" fill="#7d7d7d" />
            <path id="F#" className="" d="M2835.53,1366.29c-129.295,-129.295 -290.346,-222.278 -466.967,-269.603l-134.801,503.086c88.31,23.663 168.836,70.154 233.483,134.802l368.285,-368.285Zm-243.821,-7.176l0,36.133l14.038,-7.202l-0.122,16.357l-13.916,7.203l0.244,49.682l13.794,-6.958l0,16.724l-13.916,7.08l0.244,35.278l-6.958,0l-0.122,-31.738l-35.888,18.066l0.244,39.063l-6.592,0.122l-0.122,-35.889l-14.16,7.08l-0,-16.601l14.282,-7.325l-0.244,-49.682l-14.16,7.202l-0,-16.479l14.16,-7.203l-0.122,-35.766l6.714,-0l0.122,32.226l35.766,-17.578l-0.122,-40.039l6.836,0.244Zm-96.313,82.764l-70.313,-0l0,72.632l-36.621,-0l0,-177.735l115.723,0l-0,29.664l-79.102,-0l0,45.898l70.313,-0l-0,29.541Zm89.599,-26.611l-35.888,18.066l0.244,49.561l35.644,-17.945l0,-49.682Z" fill="#7d7d7d" />
            <path id="C#" className="" d="M3105.13,1833.26c-47.325,-176.62 -140.308,-337.671 -269.603,-466.966l-368.285,368.285c64.648,64.647 111.139,145.173 134.802,233.483l503.086,-134.802Zm-232.162,-189.852l0,36.133l14.039,-7.202l-0.123,16.357l-13.916,7.202l0.245,49.683l13.794,-6.958l-0,16.724l-13.916,7.08l0.244,35.278l-6.958,0l-0.122,-31.738l-35.889,18.066l0.244,39.063l-6.592,0.122l-0.122,-35.889l-14.16,7.08l0,-16.601l14.282,-7.325l-0.244,-49.682l-14.16,7.202l-0,-16.48l14.16,-7.202l-0.122,-35.766l6.714,-0l0.122,32.226l35.767,-17.578l-0.122,-40.039l6.835,0.244Zm-90.332,96.192c-1.383,19.124 -8.443,34.179 -21.179,45.166c-12.736,10.986 -29.52,16.479 -50.354,16.479c-22.786,0 -40.71,-7.67 -53.772,-23.01c-13.061,-15.34 -19.592,-36.397 -19.592,-63.172l-0,-10.864c-0,-17.09 3.011,-32.145 9.033,-45.166c6.022,-13.021 14.628,-23.01 25.818,-29.968c11.19,-6.958 24.19,-10.437 39.002,-10.437c20.507,-0 37.027,5.493 49.56,16.479c12.533,10.987 19.775,26.408 21.729,46.265l-36.622,0c-0.895,-11.475 -4.089,-19.796 -9.582,-24.963c-5.493,-5.168 -13.855,-7.752 -25.085,-7.752c-12.208,0 -21.342,4.374 -27.405,13.123c-6.063,8.748 -9.176,22.318 -9.339,40.71l0,13.428c0,19.206 2.91,33.244 8.728,42.114c5.819,8.871 14.995,13.306 27.527,13.306c11.312,-0 19.755,-2.584 25.33,-7.752c5.574,-5.167 8.769,-13.163 9.582,-23.986l36.621,-0Zm83.619,-40.039l-35.889,18.066l0.244,49.561l35.645,-17.945l-0,-49.682Z" fill="#7d7d7d" />
            <path id="G#" className="" d="M3105.13,2372.46c47.325,-176.621 47.325,-362.587 0,-539.207l-503.086,134.802c23.662,88.31 23.662,181.293 -0,269.603l503.086,134.802Zm-120.332,-347.118l0,36.132l14.038,-7.202l-0.122,16.358l-13.916,7.202l0.244,49.682l13.794,-6.958l0,16.724l-13.916,7.08l0.244,35.279l-6.958,-0l-0.122,-31.739l-35.888,18.067l0.244,39.062l-6.592,0.122l-0.122,-35.888l-14.16,7.08l-0,-16.602l14.282,-7.324l-0.244,-49.683l-14.16,7.202l-0,-16.479l14.16,-7.202l-0.122,-35.767l6.714,0l0.122,32.227l35.766,-17.578l-0.122,-40.04l6.836,0.245Zm-95.947,132.934c-6.592,7.894 -15.91,14.018 -27.954,18.372c-12.044,4.354 -25.391,6.531 -40.039,6.531c-15.381,-0 -28.87,-3.357 -40.467,-10.071c-11.596,-6.714 -20.548,-16.459 -26.855,-29.236c-6.307,-12.777 -9.542,-27.791 -9.705,-45.044l0,-12.085c0,-17.741 2.991,-33.101 8.973,-46.082c5.981,-12.98 14.607,-22.908 25.878,-29.785c11.272,-6.876 24.476,-10.315 39.612,-10.315c21.078,0 37.557,5.026 49.439,15.076c11.881,10.05 18.921,24.679 21.118,43.884l-35.645,0c-1.627,-10.172 -5.228,-17.618 -10.803,-22.339c-5.574,-4.72 -13.244,-7.08 -23.01,-7.08c-12.451,0 -21.932,4.68 -28.442,14.038c-6.511,9.359 -9.807,23.275 -9.888,41.749l-0,11.352c-0,18.636 3.54,32.715 10.62,42.236c7.08,9.522 17.456,14.283 31.128,14.283c13.753,-0 23.559,-2.93 29.419,-8.789l-0,-30.64l-33.325,-0l-0,-26.978l69.946,0l-0,70.923Zm89.233,-76.782l-35.888,18.066l0.244,49.561l35.644,-17.944l0,-49.683Z" fill="#7d7d7d" />
            <path id="D#" className="" d="M2835.53,2839.43c129.295,-129.295 222.278,-290.346 269.603,-466.967l-503.086,-134.801c-23.663,88.31 -70.154,168.836 -134.802,233.483l368.285,368.285Zm47.281,-417.67l0,36.132l14.038,-7.202l-0.122,16.358l-13.916,7.202l0.244,49.682l13.794,-6.958l0,16.724l-13.916,7.08l0.244,35.278l-6.958,0l-0.122,-31.738l-35.888,18.067l0.244,39.062l-6.592,0.122l-0.122,-35.889l-14.16,7.081l-0,-16.602l14.282,-7.324l-0.244,-49.683l-14.16,7.202l-0,-16.479l14.16,-7.202l-0.122,-35.767l6.714,0l0.122,32.227l35.766,-17.579l-0.122,-40.039l6.836,0.245Zm-228.76,155.395l0,-177.734l54.688,-0c15.625,-0 29.602,3.519 41.931,10.559c12.329,7.039 21.952,17.049 28.87,30.029c6.917,12.98 10.376,27.73 10.376,44.251l-0,8.178c-0,16.52 -3.398,31.21 -10.193,44.068c-6.795,12.858 -16.378,22.827 -28.748,29.907c-12.37,7.08 -26.326,10.661 -41.87,10.742l-55.054,0Zm36.621,-148.071l0,118.652l17.701,0c14.323,0 25.268,-4.679 32.837,-14.038c7.568,-9.359 11.434,-22.746 11.596,-40.161l0,-9.4c0,-18.066 -3.743,-31.758 -11.23,-41.076c-7.487,-9.318 -18.433,-13.977 -32.837,-13.977l-18.067,-0Zm185.425,48.828l-35.888,18.066l0.244,49.561l35.644,-17.944l0,-49.683Z" fill="#7d7d7d" />
            <path id="BbA#" className="" d="M2368.56,3109.03c176.62,-47.325 337.671,-140.308 466.966,-269.603l-368.285,-368.285c-64.647,64.648 -145.173,111.139 -233.483,134.802l134.802,503.086Zm78.126,-321.315l4.72,0l0,68.604c3.906,-4.015 7.392,-6.985 10.457,-8.911c3.066,-1.926 5.575,-2.889 7.528,-2.889c2.279,-0 4.354,0.42 6.226,1.261c1.871,0.841 3.513,2.035 4.923,3.581c1.411,1.546 2.496,3.35 3.255,5.412c0.76,2.061 1.14,4.313 1.14,6.754c-0,1.573 -0.461,3.269 -1.384,5.086c-0.922,1.818 -2.034,3.635 -3.336,5.453c-1.302,1.817 -2.686,3.526 -4.151,5.127c-1.465,1.6 -2.767,2.97 -3.906,4.11l-24.902,23.437l-0.57,-117.025Zm4.964,109.375c1.953,-2.55 4.042,-5.303 6.266,-8.26c2.225,-2.957 4.259,-6.035 6.104,-9.236c1.845,-3.201 3.377,-6.511 4.598,-9.929c1.221,-3.418 1.831,-6.836 1.831,-10.254c-0,-2.224 -0.597,-4.015 -1.79,-5.371c-1.194,-1.356 -2.794,-2.034 -4.802,-2.034c-1.682,-0 -3.431,0.447 -5.249,1.342c-1.817,0.896 -3.296,1.967 -4.435,3.215l-2.767,3.499l0.244,37.028Zm-113.037,-2.929l0,-118.49l41.504,0c14.377,0 25.282,2.753 32.715,8.26c7.433,5.507 11.149,13.577 11.149,24.211c-0,5.805 -1.492,10.918 -4.476,15.34c-2.984,4.422 -7.134,7.663 -12.451,9.725c6.076,1.519 10.864,4.584 14.363,9.196c3.5,4.611 5.249,10.254 5.249,16.927c0,11.393 -3.635,20.019 -10.905,25.879c-7.269,5.859 -17.632,8.843 -31.087,8.952l-46.061,-0Zm24.414,-51.595l0,31.982l20.915,-0c5.751,-0 10.24,-1.37 13.468,-4.11c3.228,-2.74 4.842,-6.524 4.842,-11.352c0,-10.851 -5.615,-16.358 -16.845,-16.52l-22.38,-0Zm0,-17.253l18.067,-0c12.315,-0.217 18.473,-5.127 18.473,-14.73c-0,-5.371 -1.56,-9.237 -4.68,-11.597c-3.119,-2.36 -8.043,-3.54 -14.77,-3.54l-17.09,0l0,29.867Zm282.178,-138.347l-0,24.089l9.358,-4.802l-0.081,10.905l-9.277,4.802l0.162,33.121l9.196,-4.638l0,11.149l-9.277,4.72l0.163,23.519l-4.639,-0l-0.081,-21.159l-23.926,12.044l0.163,26.042l-4.395,0.081l-0.081,-23.926l-9.44,4.721l-0,-11.068l9.521,-4.883l-0.163,-33.122l-9.44,4.802l0,-10.987l9.44,-4.801l-0.081,-23.844l4.476,-0l0.081,21.484l23.845,-11.719l-0.082,-26.693l4.558,0.163Zm-89.437,79.183l-42.806,0l-8.138,24.414l-25.961,0l44.109,-118.489l22.623,-0l44.352,118.489l-25.96,0l-8.219,-24.414Zm84.961,-41.748l-23.926,12.044l0.163,33.041l23.763,-11.963l-0,-33.122Zm-121.175,21.973l29.622,-0l-14.893,-44.352l-14.729,44.352Z" fill="#7d7d7d" />
            <path id="FE#" className="" d="M1829.36,3109.03c176.62,47.325 362.586,47.325 539.207,0l-134.802,-503.086c-88.31,23.662 -181.293,23.662 -269.603,-0l-134.802,503.086Zm417.994,-260.528l-0,24.089l9.358,-4.801l-0.081,10.905l-9.277,4.801l0.162,33.122l9.196,-4.639l0,11.149l-9.277,4.72l0.163,23.519l-4.639,0l-0.081,-21.159l-23.926,12.044l0.163,26.042l-4.395,0.082l-0.081,-23.926l-9.44,4.72l-0,-11.068l9.521,-4.883l-0.163,-33.121l-9.44,4.801l0,-10.986l9.44,-4.802l-0.081,-23.844l4.476,-0l0.081,21.484l23.845,-11.719l-0.082,-26.692l4.558,0.162Zm-216.123,55.176l-46.875,0l-0,48.421l-24.414,0l-0,-118.489l77.148,-0l-0,19.775l-52.734,0l-0,30.599l46.875,0l-0,19.694Zm149.472,-2.929l-46.875,-0l0,31.738l55.013,-0l0,19.612l-79.427,0l0,-118.489l79.264,-0l0,19.775l-54.85,0l0,28.239l46.875,0l0,19.125Zm62.175,-14.812l-23.926,12.045l0.163,33.04l23.763,-11.963l-0,-33.122Z" fill="#7d7d7d" />
            <path id="CB#" className="" d="M1362.39,2839.43c129.295,129.295 290.346,222.278 466.966,269.603l134.802,-503.086c-88.31,-23.663 -168.836,-70.154 -233.483,-134.802l-368.285,368.285Zm490.347,-82.122l0,24.089l9.359,-4.802l-0.081,10.905l-9.278,4.802l0.163,33.121l9.196,-4.638l-0,11.149l-9.277,4.72l0.162,23.519l-4.638,-0l-0.082,-21.159l-23.925,12.044l0.162,26.042l-4.394,0.081l-0.082,-23.926l-9.44,4.72l0,-11.067l9.522,-4.883l-0.163,-33.122l-9.44,4.802l-0,-10.987l9.44,-4.801l-0.081,-23.845l4.476,0l0.081,21.485l23.844,-11.719l-0.081,-26.693l4.557,0.163Zm-150.553,103.597l-0,-118.49l41.504,0c14.377,0 25.282,2.754 32.715,8.261c7.432,5.506 11.149,13.576 11.149,24.21c-0,5.805 -1.492,10.919 -4.476,15.34c-2.984,4.422 -7.135,7.664 -12.451,9.725c6.076,1.519 10.864,4.585 14.363,9.196c3.5,4.612 5.249,10.254 5.249,16.927c0,11.394 -3.635,20.02 -10.905,25.879c-7.27,5.86 -17.632,8.844 -31.087,8.952l-46.061,0Zm24.414,-51.595l-0,31.982l20.915,0c5.751,0 10.24,-1.369 13.468,-4.109c3.228,-2.74 4.842,-6.524 4.842,-11.353c0,-10.851 -5.615,-16.357 -16.846,-16.52l-22.379,0Zm121.663,-14.567l-23.925,12.044l0.162,33.041l23.763,-11.963l0,-33.122Zm-121.663,-2.686l18.066,0c12.316,-0.217 18.474,-5.127 18.474,-14.729c-0,-5.372 -1.56,-9.237 -4.68,-11.597c-3.119,-2.36 -8.043,-3.54 -14.77,-3.54l-17.09,-0l-0,29.866Zm-64.173,-56.664c-0.922,12.75 -5.629,22.787 -14.119,30.111c-8.491,7.324 -19.681,10.986 -33.57,10.986c-15.19,0 -27.14,-5.113 -35.847,-15.34c-8.708,-10.227 -13.062,-24.265 -13.062,-42.114l-0,-7.243c-0,-11.393 2.007,-21.43 6.022,-30.111c4.015,-8.68 9.752,-15.34 17.212,-19.978c7.46,-4.639 16.127,-6.958 26.001,-6.958c13.672,-0 24.685,3.662 33.04,10.986c8.355,7.324 13.184,17.605 14.486,30.843l-24.414,-0c-0.597,-7.65 -2.726,-13.197 -6.388,-16.642c-3.662,-3.445 -9.237,-5.168 -16.724,-5.168c-8.138,0 -14.228,2.916 -18.27,8.748c-4.042,5.833 -6.117,14.879 -6.225,27.141l-0,8.952c-0,12.803 1.939,22.162 5.818,28.076c3.879,5.913 9.996,8.87 18.351,8.87c7.542,0 13.171,-1.722 16.887,-5.167c3.716,-3.446 5.846,-8.776 6.388,-15.992l24.414,0Z" fill="#7d7d7d" />
            <path id="G" className="" d="M1092.79,2372.46c47.325,176.62 140.308,337.671 269.603,466.966l368.285,-368.285c-64.648,-64.647 -111.139,-145.173 -134.802,-233.483l-503.086,134.802Zm405.498,180.836c-6.591,7.894 -15.91,14.017 -27.954,18.371c-12.044,4.354 -25.39,6.531 -40.039,6.531c-15.381,0 -28.869,-3.357 -40.466,-10.071c-11.597,-6.714 -20.549,-16.459 -26.856,-29.236c-6.307,-12.776 -9.541,-27.791 -9.704,-45.044l-0,-12.085c-0,-17.74 2.99,-33.101 8.972,-46.081c5.981,-12.98 14.608,-22.909 25.879,-29.785c11.271,-6.877 24.475,-10.315 39.612,-10.315c21.077,-0 37.557,5.025 49.438,15.076c11.882,10.05 18.921,24.678 21.118,43.884l-35.644,-0c-1.628,-10.173 -5.229,-17.619 -10.803,-22.339c-5.575,-4.72 -13.245,-7.08 -23.011,-7.08c-12.451,-0 -21.932,4.679 -28.442,14.038c-6.511,9.359 -9.806,23.275 -9.888,41.748l0,11.353c0,18.636 3.54,32.714 10.62,42.236c7.08,9.521 17.456,14.282 31.128,14.282c13.754,0 23.56,-2.93 29.419,-8.789l0,-30.64l-33.325,0l0,-26.977l69.946,-0l0,70.923Z" fill="#7d7d7d" />
            <path id="D" className="" d="M1092.79,1833.26c-47.326,176.62 -47.326,362.586 -0,539.207l503.086,-134.802c-23.663,-88.31 -23.663,-181.293 -0,-269.603l-503.086,-134.802Zm165.864,358.471l-0,-177.735l54.687,0c15.625,0 29.602,3.52 41.931,10.559c12.329,7.04 21.953,17.049 28.87,30.03c6.917,12.98 10.376,27.73 10.376,44.25l-0,8.179c-0,16.52 -3.398,31.209 -10.193,44.067c-6.795,12.858 -16.378,22.827 -28.747,29.907c-12.37,7.081 -26.327,10.661 -41.871,10.743l-55.053,-0Zm36.621,-148.072l-0,118.653l17.7,-0c14.323,-0 25.269,-4.68 32.837,-14.038c7.568,-9.359 11.434,-22.746 11.597,-40.162l-0,-9.399c-0,-18.066 -3.744,-31.759 -11.231,-41.077c-7.487,-9.318 -18.433,-13.977 -32.837,-13.977l-18.066,0Z" fill="#7d7d7d" />
            <path id="A" className="" d="M1362.39,1366.29c-129.295,129.295 -222.278,290.346 -269.603,466.966l503.086,134.802c23.663,-88.31 70.154,-168.836 134.802,-233.483l-368.285,-368.285Zm78.857,381.457l-64.209,0l-12.207,36.621l-38.941,0l66.162,-177.734l33.936,-0l66.528,177.734l-38.94,0l-12.329,-36.621Zm-54.322,-29.663l44.434,0l-22.339,-66.528l-22.095,66.528Z" fill="#7d7d7d" />
            <path id="E" className="" d="M1829.36,1096.69c-176.62,47.325 -337.671,140.308 -466.966,269.603l368.285,368.285c64.647,-64.648 145.173,-111.139 233.483,-134.802l-134.802,-503.086Zm-69.13,349.063l-70.313,-0l0,47.607l82.52,0l0,29.419l-119.141,-0l0,-177.734l118.897,-0l-0,29.663l-82.276,-0l0,42.358l70.313,0l-0,28.687Z" fill="#7d7d7d" />
        </g>
    </g>
    <g className="lines">
        <circle cx="2098.96" cy="2102.86" r="534.615" fill="var(--bg-secondary-color)" stroke="var(--bg-secondary-color)" stroke-width="31.25px" />
        <circle cx="2098.96" cy="2102.86" r="1041.67" fill="none" stroke="var(--bg-secondary-color)" stroke-width="31.25px" />
        <circle cx="2098.96" cy="2102.86" r="1562.5" fill="none" stroke="var(--bg-secondary-color)" stroke-width="31.25px" />
        <circle cx="2102.86" cy="2102.86" r="2087.23" fill="none" stroke="var(--bg-secondary-color)" stroke-width="31.25px" />
        <path d="M2637.66,4115.2l-1078.41,-4024.69" fill="none" stroke="var(--bg-secondary-color)" stroke-width="31.25px" />
        <path d="M3571.59,3576l-2946.28,-2946.28" fill="none" stroke="var(--bg-secondary-color)" stroke-width="31.25px" />
        <path d="M4110.8,2642.07l-4024.69,-1078.41" fill="none" stroke="var(--bg-secondary-color)" stroke-width="31.25px" />
        <path d="M4110.8,1563.65l-4024.69,1078.41" fill="none" stroke="var(--bg-secondary-color)" stroke-width="31.25px" />
        <path d="M3571.59,629.719l-2946.28,2946.28" fill="none" stroke="var(--bg-secondary-color)" stroke-width="31.25px" />
        <path d="M2637.66,90.513l-1078.41,4024.69" fill="none" stroke="var(--bg-secondary-color)" stroke-width="31.25px" />
    </g>
</svg>